<svg width="120" height="134" viewBox="0 0 120 134" fill="none" xmlns="http://www.w3.org/2000/svg">
<path d="M0 50L54.8785 4.26789C57.8453 1.79559 62.1547 1.79559 65.1215 4.2679L120 50V126C120 130.418 116.418 134 112 134H8C3.58172 134 0 130.418 0 126V50Z" fill="#6C51B8"/>
<rect x="8" y="20" width="104" height="78" fill="#02D9E7"/>
<path d="M8.40039 55.667L55.8004 77.267L53.4004 81.467L50.4004 83.267L8.40039 55.667Z" fill="black" fill-opacity="0.08"/>
<path d="M109.2 57.4668L62.4002 77.8668L64.2002 83.2668L67.2002 85.0668L109.2 57.4668Z" fill="black" fill-opacity="0.08"/>
<path d="M0 50L72.3333 97.6667L84.6704 107.07C96.0879 115.773 89.9333 134 75.5772 134H15C6.71573 134 0 127.284 0 119V50Z" fill="#6C51B8"/>
<path d="M120 50L47.6667 97.6667L35.3296 107.07C23.9121 115.773 30.0667 134 44.4228 134H105C113.284 134 120 127.284 120 119V50Z" fill="#6C51B8"/>
<path d="M0 118.333L55.0667 75.1974C57.964 72.9279 62.036 72.9279 64.9333 75.1974L120 118.333V126C120 130.418 116.418 134 112 134H8C3.58172 134 0 130.418 0 126V118.333Z" fill="#9078D5"/>
<path d="M72.0037 44L53.2064 63.2547L44.6621 54.5025" stroke="white" stroke-width="5" stroke-linecap="round" stroke-linejoin="round"/>
</svg>
