<svg width="537" height="183" viewBox="0 0 537 183" fill="none" xmlns="http://www.w3.org/2000/svg">
<mask id="mask0" mask-type="alpha" maskUnits="userSpaceOnUse" x="0" y="0" width="135" height="183">
<path d="M41.0082 118.755V40.581C41.0082 40.581 37.8659 25.8387 26.8679 16.7208C15.8698 7.60292 1.4153 6.67443 1.4153 6.67443C1.4153 6.67443 6.44295 -0.860377 28.439 0.0814752C38.0957 0.494967 52.2789 7.48481 58.9192 17.6627C67.4042 30.6679 67.0892 48.1158 67.0892 48.1158C67.0892 48.1158 90.9706 47.174 108.253 61.9296C126.367 77.395 134.796 93.3918 134.02 117.185C133.415 135.754 128.571 147.638 115.795 161.138C102.745 174.926 90.7494 180.531 71.8026 181.859C50.2683 183.368 35.3389 177.838 19.9548 162.708C7.08483 150.05 3.61491 141.987 0.158382 120.952C-0.197977 118.784 0.158382 22.3719 0.158382 22.3719C0.158382 22.3719 8.01412 21.14 16.4983 28.6509C24.9825 36.1619 25.2967 44.3484 25.2967 44.3484L25.6109 118.755C28.439 131.313 32.524 147.01 56.7196 154.545C76.8928 160.827 100.692 148.25 105.739 128.801C118.937 77.9411 67.0892 73.3496 67.0892 73.3496V140.417C67.0892 140.417 61.276 143.509 50.7493 134.766C40.2226 126.023 41.0082 118.755 41.0082 118.755Z" fill="white"/>
</mask>
<g mask="url(#mask0)">
<rect x="-7.6969" width="150.516" height="182.159" fill="url(#paint0_linear)"/>
</g>
<path d="M384.653 182.024C378.338 182.024 372.618 180.651 367.493 177.903C362.369 175.036 358.318 171.154 355.338 166.256C352.359 161.239 350.87 155.625 350.87 149.413V121.819C350.87 115.607 352.419 108.278 355.517 103.38C358.735 98.3631 363.144 94.4809 368.745 91.7334C374.345 88.8665 380.542 87.433 387.335 87.433C391.386 87.433 395.736 88.2692 400.383 89.9416C405.15 91.6139 408.963 94.4809 408.963 94.4809V93.7755V93.4934V92.4501V69.4977C408.963 64.4805 412.421 58.5191 415.51 55.0872C419.285 51.6552 425.468 47.8801 433.81 47.8801V165.719C433.81 170.378 432.605 172.479 429.455 175.809C426.306 179.139 418.914 182.542 411.287 182.542V172.349V171.868V170.034C407.842 174.675 406.196 175.598 402.659 177.583C402.281 177.795 401.881 178.02 401.456 178.262C397.166 180.77 391.565 182.024 384.653 182.024ZM392.34 160.881C397.345 160.881 401.396 159.746 404.495 157.476C407.712 155.087 409.321 152.101 409.321 148.517V122.715C409.321 119.251 407.712 116.324 404.495 113.935C401.396 111.546 397.345 109.292 392.34 109.292C385.438 109.292 382.954 111.208 380.227 113.312C380.036 113.459 379.843 113.607 379.648 113.756C376.788 116.025 375.358 119.251 375.358 123.432V147.621C375.358 151.922 376.788 155.207 379.648 157.476C382.628 159.746 386.858 160.881 392.34 160.881Z" fill="url(#paint1_linear)"/>
<path d="M384.653 182.024C378.338 182.024 372.618 180.651 367.493 177.903C362.369 175.036 358.318 171.154 355.338 166.256C352.359 161.239 350.87 155.625 350.87 149.413V121.819C350.87 115.607 352.419 108.278 355.517 103.38C358.735 98.3631 363.144 94.4809 368.745 91.7334C374.345 88.8665 380.542 87.433 387.335 87.433C391.386 87.433 395.736 88.2692 400.383 89.9416C405.15 91.6139 408.963 94.4809 408.963 94.4809V93.7755V93.4934V92.4501V69.4977C408.963 64.4805 412.421 58.5191 415.51 55.0872C419.285 51.6552 425.468 47.8801 433.81 47.8801V165.719C433.81 170.378 432.605 172.479 429.455 175.809C426.306 179.139 418.914 182.542 411.287 182.542V172.349V171.868V170.034C407.842 174.675 406.196 175.598 402.659 177.583C402.281 177.795 401.881 178.02 401.456 178.262C397.166 180.77 391.565 182.024 384.653 182.024ZM392.34 160.881C397.345 160.881 401.396 159.746 404.495 157.476C407.712 155.087 409.321 152.101 409.321 148.517V122.715C409.321 119.251 407.712 116.324 404.495 113.935C401.396 111.546 397.345 109.292 392.34 109.292C385.438 109.292 382.954 111.208 380.227 113.312C380.036 113.459 379.843 113.607 379.648 113.756C376.788 116.025 375.358 119.251 375.358 123.432V147.621C375.358 151.922 376.788 155.207 379.648 157.476C382.628 159.746 386.858 160.881 392.34 160.881Z" stroke="black"/>
<path d="M249.233 106.129C249.233 102.493 251.776 97.8673 255.517 93.5158C260.754 88.653 264.376 87.0347 272.111 87.0347V97.8673V99.3371V99.8938C272.111 99.8938 277.495 94.8684 282.969 91.8084C288.562 88.6259 294.75 87.0347 301.533 87.0347C307.483 87.0347 312.719 88.4423 317.241 91.2576C321.882 94.0728 325.512 97.9897 328.13 103.008C330.748 107.904 332.057 113.412 332.057 119.532V167.453C332.057 172.716 330.034 176.511 325.988 178.836C321.942 181.04 315.813 182.141 307.602 182.141V123.388C307.602 119.226 306.293 115.738 303.675 112.923C301.176 110.107 297.606 108.7 292.965 108.7C287.253 108.7 282.612 110.597 279.042 114.392C275.472 118.186 273.687 122.96 273.687 128.713V167.453C273.687 172.716 271.664 176.511 267.618 178.836C263.691 181.04 257.563 182.141 249.233 182.141V106.129Z" fill="url(#paint2_linear)"/>
<path d="M181.949 181.853C176.141 181.853 170.688 180.696 165.591 178.382C160.612 175.947 156.582 172.476 153.5 167.97C150.418 163.342 148.877 157.801 148.877 151.346C148.877 144.891 150.536 139.35 153.855 134.722C157.175 129.973 161.56 126.38 167.013 123.944C172.585 121.509 178.63 120.291 185.15 120.291C190.603 120.291 195.404 121.143 199.553 122.848C203.82 124.553 206.487 125.908 206.487 125.908V125.045V124.31V121.935C206.487 117.307 205.536 113.637 202.774 110.348C199.573 107.547 194.535 104.324 188.706 103.989C182.201 103.615 179.677 103.629 173.597 107.067C168.734 109.818 167.4 113.108 165.716 120.73C162.871 120 159.261 118.142 156.878 114.262C154.911 110.807 154.911 109.503 154.911 107.067C154.911 103.292 155.92 100.045 159.12 97.0001C162.321 93.8337 166.361 91.6712 171.814 89.9662C177.386 88.1395 183.49 87.2261 190.129 87.2261C203.049 87.2261 213.007 90.2707 220.001 96.36C226.995 102.449 230.491 110.731 230.491 121.204V165.595C230.491 171.319 228.475 173.825 224.844 176.557C220.816 179.588 214.234 182.542 206.41 182.542V174.806V174.375V174.087C206.41 174.087 203.287 176.556 199.019 178.748C194.752 180.818 189.062 181.853 181.949 181.853ZM188.706 163.951C194.396 163.951 198.841 162.855 202.042 160.663C205.242 158.471 206.843 155.304 206.843 151.163C206.843 147.145 205.183 143.978 201.864 141.664C198.663 139.35 194.277 138.193 188.706 138.193C183.727 138.193 179.756 139.35 176.793 141.664C173.948 143.978 172.525 147.145 172.525 151.163C172.525 155.304 173.948 158.471 176.793 160.663C179.756 162.855 183.727 163.951 188.706 163.951Z" fill="url(#paint3_linear)"/>
<path d="M181.949 181.853C176.141 181.853 170.688 180.696 165.591 178.382C160.612 175.947 156.582 172.476 153.5 167.97C150.418 163.342 148.877 157.801 148.877 151.346C148.877 144.891 150.536 139.35 153.855 134.722C157.175 129.973 161.56 126.38 167.013 123.944C172.585 121.509 178.63 120.291 185.15 120.291C190.603 120.291 195.404 121.143 199.553 122.848C203.82 124.553 206.487 125.908 206.487 125.908V125.045V124.31V121.935C206.487 117.307 205.536 113.637 202.774 110.348C199.573 107.547 194.535 104.324 188.706 103.989C182.201 103.615 179.677 103.629 173.597 107.067C168.734 109.818 167.4 113.108 165.716 120.73C162.871 120 159.261 118.142 156.878 114.262C154.911 110.807 154.911 109.503 154.911 107.067C154.911 103.292 155.92 100.045 159.12 97.0001C162.321 93.8337 166.361 91.6712 171.814 89.9662C177.386 88.1395 183.49 87.2261 190.129 87.2261C203.049 87.2261 213.007 90.2707 220.001 96.36C226.995 102.449 230.491 110.731 230.491 121.204V165.595C230.491 171.319 228.475 173.825 224.844 176.557C220.816 179.588 214.234 182.542 206.41 182.542V174.806V174.375V174.087C206.41 174.087 203.287 176.556 199.019 178.748C194.752 180.818 189.062 181.853 181.949 181.853ZM188.706 163.951C194.396 163.951 198.841 162.855 202.042 160.663C205.242 158.471 206.843 155.304 206.843 151.163C206.843 147.145 205.183 143.978 201.864 141.664C198.663 139.35 194.277 138.193 188.706 138.193C183.727 138.193 179.756 139.35 176.793 141.664C173.948 143.978 172.525 147.145 172.525 151.163C172.525 155.304 173.948 158.471 176.793 160.663C179.756 162.855 183.727 163.951 188.706 163.951Z" stroke="black"/>
<path d="M494.681 182.141C486.791 182.141 479.619 180.675 473.163 177.743C466.708 174.812 461.627 170.781 457.921 165.65C454.215 160.397 452.363 154.473 452.363 147.876V123.506C452.363 116.788 454.156 110.68 457.742 105.183C461.328 99.5638 466.349 95.1662 472.805 91.9901C479.26 88.8141 486.552 87.2261 494.681 87.2261C502.81 87.2261 510.103 88.8141 516.558 91.9901C523.013 95.1662 528.034 99.5638 531.621 105.183C535.207 110.68 537 116.788 537 123.506V147.876C537 154.473 535.147 160.397 531.441 165.65C527.735 170.781 522.655 174.812 516.199 177.743C509.744 180.675 502.571 182.141 494.681 182.141ZM494.681 160.519C500.3 160.519 504.663 159.237 507.771 156.672C510.88 154.106 512.434 150.564 512.434 146.044V124.789C512.434 120.025 510.82 116.177 507.592 113.245C504.484 110.313 500.18 108.848 494.681 108.848C489.182 108.848 484.819 110.313 481.591 113.245C478.483 116.177 476.929 120.025 476.929 124.789V146.044C476.929 150.564 478.483 154.106 481.591 156.672C484.699 159.237 489.063 160.519 494.681 160.519Z" fill="url(#paint4_linear)"/>
<path d="M494.681 182.141C486.791 182.141 479.619 180.675 473.163 177.743C466.708 174.812 461.627 170.781 457.921 165.65C454.215 160.397 452.363 154.473 452.363 147.876V123.506C452.363 116.788 454.156 110.68 457.742 105.183C461.328 99.5638 466.349 95.1662 472.805 91.9901C479.26 88.8141 486.552 87.2261 494.681 87.2261C502.81 87.2261 510.103 88.8141 516.558 91.9901C523.013 95.1662 528.034 99.5638 531.621 105.183C535.207 110.68 537 116.788 537 123.506V147.876C537 154.473 535.147 160.397 531.441 165.65C527.735 170.781 522.655 174.812 516.199 177.743C509.744 180.675 502.571 182.141 494.681 182.141ZM494.681 160.519C500.3 160.519 504.663 159.237 507.771 156.672C510.88 154.106 512.434 150.564 512.434 146.044V124.789C512.434 120.025 510.82 116.177 507.592 113.245C504.484 110.313 500.18 108.848 494.681 108.848C489.182 108.848 484.819 110.313 481.591 113.245C478.483 116.177 476.929 120.025 476.929 124.789V146.044C476.929 150.564 478.483 154.106 481.591 156.672C484.699 159.237 489.063 160.519 494.681 160.519Z" stroke="black"/>
<defs>
<linearGradient id="paint0_linear" x1="9.40721" y1="26.5114" x2="161.415" y2="241.536" gradientUnits="userSpaceOnUse">
<stop stop-color="#FE6943"/>
<stop offset="0.5" stop-color="#F62D7F"/>
<stop offset="0.989583" stop-color="#AE2AC4"/>
</linearGradient>
<linearGradient id="paint1_linear" x1="360.295" y1="67.4789" x2="479.327" y2="192.987" gradientUnits="userSpaceOnUse">
<stop stop-color="#FE6943"/>
<stop offset="0.5" stop-color="#F62D7F"/>
<stop offset="0.989583" stop-color="#AE2AC4"/>
</linearGradient>
<linearGradient id="paint2_linear" x1="258.644" y1="100.876" x2="336.536" y2="217.001" gradientUnits="userSpaceOnUse">
<stop stop-color="#FE6943"/>
<stop offset="0.5" stop-color="#F62D7F"/>
<stop offset="0.989583" stop-color="#AE2AC4"/>
</linearGradient>
<linearGradient id="paint3_linear" x1="158.151" y1="101.098" x2="236.707" y2="216.25" gradientUnits="userSpaceOnUse">
<stop stop-color="#FE6943"/>
<stop offset="0.5" stop-color="#F62D7F"/>
<stop offset="0.989583" stop-color="#AE2AC4"/>
</linearGradient>
<linearGradient id="paint4_linear" x1="461.98" y1="101.04" x2="539.002" y2="218.618" gradientUnits="userSpaceOnUse">
<stop stop-color="#FE6943"/>
<stop offset="0.5" stop-color="#F62D7F"/>
<stop offset="0.989583" stop-color="#AE2AC4"/>
</linearGradient>
</defs>
</svg>
